<?xml version="1.0" encoding="UTF-8" standalone="no"?>
<svg
   xmlns:dc="http://purl.org/dc/elements/1.1/"
   xmlns:cc="http://creativecommons.org/ns#"
   xmlns:rdf="http://www.w3.org/1999/02/22-rdf-syntax-ns#"
   xmlns:svg="http://www.w3.org/2000/svg"
   xmlns="http://www.w3.org/2000/svg"
   id="svg8"
   version="1.1"
   viewBox="0 0 210 297"
   height="297mm"
   width="210mm">
  <defs
     id="defs2" />
  <metadata
     id="metadata5">
    <rdf:RDF>
      <cc:Work
         rdf:about="">
        <dc:format>image/svg+xml</dc:format>
        <dc:type
           rdf:resource="http://purl.org/dc/dcmitype/StillImage" />
        <dc:title></dc:title>
      </cc:Work>
    </rdf:RDF>
  </metadata>
  <g
     id="layer1">
    <g
       transform="matrix(1,0,0,1.8297429,7.6334302,-110.08116)"
       id="g3743">
      <g
         id="g3701"
         style="fill:#ff0000">
        <path
           id="path3703"
           style="fill:#ff0000;fill-rule:evenodd;stroke:none;stroke-linejoin:round"
           d="m 35.213239,131.34097 v 42.73476 l 18.558723,-2.71561 V 133.1629 Z"
           points="35.213239,174.07573 53.771962,171.36012 53.771962,133.1629 35.213239,131.34097 " />
        <path
           id="path3711"
           style="fill:#ff0000;fill-rule:evenodd;stroke:none;stroke-linejoin:round"
           d="m 35.213239,174.07573 69.884751,26.91741 20.99277,-10.50482 -72.318798,-19.1282 z"
           points="105.09799,200.99314 126.09076,190.48832 53.771962,171.36012 35.213239,174.07573 " />
        <path
           id="path3713"
           style="fill:#ff0000;fill-rule:evenodd;stroke:none;stroke-linejoin:round"
           d="m 53.771962,133.1629 72.318798,-14.66556 v 71.99098 l -72.318798,-19.1282 z"
           points="126.09076,118.49734 126.09076,190.48832 53.771962,171.36012 53.771962,133.1629 " />
        <path
           id="path3705"
           style="fill:#ff0000;fill-rule:evenodd;stroke:none;stroke-linejoin:round"
           d="m 35.213239,131.34097 69.884751,-20.34982 20.99277,7.50619 -72.318798,14.66556 z"
           points="105.09799,110.99115 126.09076,118.49734 53.771962,133.1629 35.213239,131.34097 " />
        <path
           id="path3709"
           style="fill:#ff0000;fill-rule:evenodd;stroke:none;stroke-linejoin:round"
           d="m 105.09799,110.99115 v 90.00199 l 20.99277,-10.50482 v -71.99098 z"
           points="105.09799,200.99314 126.09076,190.48832 126.09076,118.49734 105.09799,110.99115 " />
        <path
           id="path3707"
           style="fill:#ff0000;fill-rule:evenodd;stroke:none;stroke-linejoin:round"
           d="m 35.213239,131.34097 69.884751,-20.34982 v 90.00199 L 35.213239,174.07573 Z"
           points="105.09799,110.99115 105.09799,200.99314 35.213239,174.07573 35.213239,131.34097 " />
      </g>
      <g
         id="g3715"
         style="fill:#ff0000">
        <path
           id="path3717"
           style="fill:#353564;fill-rule:evenodd;stroke:none;stroke-linejoin:round"
           d="m 96.482065,101.41404 v 91.15148 l 21.524995,-8.35559 v -73.86757 z"
           points="96.482065,192.56552 118.00706,184.20993 118.00706,110.34236 96.482065,101.41404 " />
        <path
           id="path3725"
           style="fill:#afafde;fill-rule:evenodd;stroke:none;stroke-linejoin:round"
           d="m 96.482065,192.56552 70.842075,24.37792 11.46128,-18.38156 -60.77836,-14.35195 z"
           points="167.32414,216.94344 178.78542,198.56188 118.00706,184.20993 96.482065,192.56552 " />
        <path
           id="path3727"
           style="fill:#e9e9ff;fill-rule:evenodd;stroke:none;stroke-linejoin:round"
           d="M 118.00706,110.34236 178.78542,93.939198 V 198.56188 l -60.77836,-14.35195 z"
           points="178.78542,93.939198 178.78542,198.56188 118.00706,184.20993 118.00706,110.34236 " />
        <path
           id="path3719"
           style="fill:#4d4d9f;fill-rule:evenodd;stroke:none;stroke-linejoin:round"
           d="M 96.482065,101.41404 167.32414,73.905733 178.78542,93.939198 118.00706,110.34236 Z"
           points="167.32414,73.905733 178.78542,93.939198 118.00706,110.34236 96.482065,101.41404 " />
        <path
           id="path3723"
           style="fill:#d7d7ff;fill-rule:evenodd;stroke:none;stroke-linejoin:round"
           d="M 167.32414,73.905733 V 216.94344 l 11.46128,-18.38156 V 93.939198 Z"
           points="167.32414,216.94344 178.78542,198.56188 178.78542,93.939198 167.32414,73.905733 " />
        <path
           id="path3721"
           style="fill:#8686bf;fill-rule:evenodd;stroke:none;stroke-linejoin:round"
           d="M 96.482065,101.41404 167.32414,73.905733 V 216.94344 L 96.482065,192.56552 Z"
           points="167.32414,73.905733 167.32414,216.94344 96.482065,192.56552 96.482065,101.41404 " />
      </g>
    </g>
    <path
       d="m 114.67918,83.879498 9.05985,-3.265584 v 20.205316 l -9.05985,2.28562 z"
       style="fill:#000000;fill-rule:evenodd;stroke:none;stroke-linejoin:round"
       id="path3761" />
    <path
       id="path3823"
       style="fill:#000000;fill-rule:evenodd;stroke:none;stroke-linejoin:round"
       d="m 157.01251,52.558908 9.05985,-3.265584 V 69.49864 l -9.05985,2.28562 z" />
    <path
       d="m 134.71191,69.18986 9.05985,-3.265584 v 20.205316 l -9.05985,2.28562 z"
       style="fill:#000000;fill-rule:evenodd;stroke:none;stroke-linejoin:round"
       id="path3825" />
    <path
       id="path3827"
       style="fill:#000000;fill-rule:evenodd;stroke:none;stroke-linejoin:round"
       d="m 114.67917,120.21665 9.05985,-3.26559 v 20.20532 l -9.05985,2.28562 z" />
    <path
       d="m 133.72419,106.73851 9.05985,-3.26559 v 20.20532 l -9.05985,2.28562 z"
       style="fill:#000000;fill-rule:evenodd;stroke:none;stroke-linejoin:round"
       id="path3829" />
    <path
       id="path3831"
       style="fill:#000000;fill-rule:evenodd;stroke:none;stroke-linejoin:round"
       d="m 156.40276,93.509343 9.05985,-3.26559 v 20.205317 l -9.05985,2.28562 z" />
    <text
       id="text3919"
       y="212.33333"
       x="113.3548"
       style="font-style:normal;font-weight:normal;font-size:10.58333302px;line-height:1.25;font-family:sans-serif;letter-spacing:0px;word-spacing:0px;fill:#000000;fill-opacity:1;stroke:none;stroke-width:0.26458332"
       xml:space="preserve"><tspan
         style="font-style:normal;font-variant:normal;font-weight:normal;font-stretch:normal;font-size:22.57777786px;font-family:'.Savoye LET CC.';-inkscape-font-specification:'.Savoye LET CC.';stroke-width:0.26458332"
         y="212.33333"
         x="113.3548"
         id="tspan3917">Hello</tspan></text>
  </g>
</svg>
