<?xml version="1.0" encoding="UTF-8" standalone="no"?>
<svg
   xmlns:dc="http://purl.org/dc/elements/1.1/"
   xmlns:cc="http://creativecommons.org/ns#"
   xmlns:rdf="http://www.w3.org/1999/02/22-rdf-syntax-ns#"
   xmlns:svg="http://www.w3.org/2000/svg"
   xmlns="http://www.w3.org/2000/svg"
   id="svg8"
   version="1.1"
   viewBox="0 0 400 200"
   height="200mm"
   width="400mm">
  <defs
     id="defs2" />
  <metadata
     id="metadata5">
    <rdf:RDF>
      <cc:Work
         rdf:about="">
        <dc:format>image/svg+xml</dc:format>
        <dc:type
           rdf:resource="http://purl.org/dc/dcmitype/StillImage" />
        <dc:title></dc:title>
      </cc:Work>
    </rdf:RDF>
  </metadata>
  <g
     style="opacity:1"
     transform="translate(0,-97)"
     id="layer1">
    <g
       transform="translate(4.6997389,-1.0443864)"
       id="g6936">
      <path
         style="fill:#7c6f9f;fill-opacity:0.92271645;stroke-width:0.26458332"
         id="path5599"
         d="M 102.09695,190.62673 73.046471,207.80221 43.646822,191.2315 43.297655,157.4853 72.348136,140.30982 101.74779,156.88053 Z"
         transform="matrix(0.19090916,0,0,1,-6.1127365,-9.7467697)" />
      <path
         transform="matrix(0.19090916,0,0,1,61.379658,-9.8800843)"
         d="M 102.09695,190.62673 73.046471,207.80221 43.646822,191.2315 43.297655,157.4853 72.348136,140.30982 101.74779,156.88053 Z"
         id="path5631"
         style="fill:#7c6f9f;fill-opacity:0.92271645;stroke-width:0.26458332" />
      <path
         style="fill:#7c6f9f;fill-opacity:0.92271645;stroke-width:0.26458332"
         id="path5633"
         d="M 102.09695,190.62673 73.046471,207.80221 43.646822,191.2315 43.297655,157.4853 72.348136,140.30982 101.74779,156.88053 Z"
         transform="matrix(0,0.19090916,-1,0,215.50139,116.61781)" />
      <path
         transform="matrix(0,0.19090916,-1,0,215.63471,184.11021)"
         d="M 102.09695,190.62673 73.046471,207.80221 43.646822,191.2315 43.297655,157.4853 72.348136,140.30982 101.74779,156.88053 Z"
         id="path5635"
         style="fill:#7c6f9f;fill-opacity:0.92271645;stroke-width:0.26458332" />
      <path
         transform="matrix(-0.19090916,0,0,-1,89.270136,405.72435)"
         d="M 102.09695,190.62673 73.046471,207.80221 43.646822,191.2315 43.297655,157.4853 72.348136,140.30982 101.74779,156.88053 Z"
         id="path5637"
         style="fill:#7c6f9f;fill-opacity:0.92271645;stroke-width:0.26458332" />
      <path
         style="fill:#7c6f9f;fill-opacity:0.92271645;stroke-width:0.26458332"
         id="path5639"
         d="M 102.09695,190.62673 73.046471,207.80221 43.646822,191.2315 43.297655,157.4853 72.348136,140.30982 101.74779,156.88053 Z"
         transform="matrix(-0.19090916,0,0,-1,21.777747,405.85766)" />
      <path
         transform="matrix(0,-0.19090916,1,0,-132.344,279.35977)"
         d="M 102.09695,190.62673 73.046471,207.80221 43.646822,191.2315 43.297655,157.4853 72.348136,140.30982 101.74779,156.88053 Z"
         id="path5641"
         style="fill:#7c6f9f;fill-opacity:0.92271645;stroke-width:0.26458332" />
    </g>
    <g
       transform="translate(4.6997389,-1.0443864)"
       id="g6945">
      <path
         transform="matrix(0.19090916,0,0,1,86.074763,-9.7467664)"
         d="M 102.09695,190.62673 73.046471,207.80221 43.646822,191.2315 43.297655,157.4853 72.348136,140.30982 101.74779,156.88053 Z"
         id="path6614"
         style="fill:#7c6f9f;fill-opacity:0.92271645;stroke-width:0.26458332" />
      <path
         style="fill:#7c6f9f;fill-opacity:0.92271645;stroke-width:0.26458332"
         id="path6616"
         d="M 102.09695,190.62673 73.046471,207.80221 43.646822,191.2315 43.297655,157.4853 72.348136,140.30982 101.74779,156.88053 Z"
         transform="matrix(0.19090916,0,0,1,153.56715,-9.880081)" />
      <path
         transform="matrix(0,0.19090916,-1,0,307.68889,116.61781)"
         d="M 102.09695,190.62673 73.046471,207.80221 43.646822,191.2315 43.297655,157.4853 72.348136,140.30982 101.74779,156.88053 Z"
         id="path6618"
         style="fill:#7c6f9f;fill-opacity:0.92271645;stroke-width:0.26458332" />
      <path
         style="fill:#7c6f9f;fill-opacity:0.92271645;stroke-width:0.26458332"
         id="path6620"
         d="M 102.09695,190.62673 73.046471,207.80221 43.646822,191.2315 43.297655,157.4853 72.348136,140.30982 101.74779,156.88053 Z"
         transform="matrix(0,0.19090916,-1,0,307.82221,184.11021)" />
      <path
         style="fill:#7c6f9f;fill-opacity:0.92271645;stroke-width:0.26458332"
         id="path6622"
         d="M 102.09695,190.62673 73.046471,207.80221 43.646822,191.2315 43.297655,157.4853 72.348136,140.30982 101.74779,156.88053 Z"
         transform="matrix(-0.19090916,0,0,-1,181.45763,405.72435)" />
      <path
         transform="matrix(-0.19090916,0,0,-1,113.96524,405.85766)"
         d="M 102.09695,190.62673 73.046471,207.80221 43.646822,191.2315 43.297655,157.4853 72.348136,140.30982 101.74779,156.88053 Z"
         id="path6624"
         style="fill:#7c6f9f;fill-opacity:0.92271645;stroke-width:0.26458332" />
      <path
         style="fill:#7c6f9f;fill-opacity:0.92271645;stroke-width:0.26458332"
         id="path6626"
         d="M 102.09695,190.62673 73.046471,207.80221 43.646822,191.2315 43.297655,157.4853 72.348136,140.30982 101.74779,156.88053 Z"
         transform="matrix(0,-0.19090916,1,0,-40.156495,279.35977)" />
    </g>
    <g
       transform="translate(4.6997389,-1.0443864)"
       id="g6954">
      <path
         style="fill:#7c6f9f;fill-opacity:0.92271645;stroke-width:0.26458332"
         id="path6642"
         d="M 102.09695,190.62673 73.046471,207.80221 43.646822,191.2315 43.297655,157.4853 72.348136,140.30982 101.74779,156.88053 Z"
         transform="matrix(0.19090916,0,0,1,212.63726,-9.746763)" />
      <path
         transform="matrix(0.19090916,0,0,1,280.12965,-9.8800776)"
         d="M 102.09695,190.62673 73.046471,207.80221 43.646822,191.2315 43.297655,157.4853 72.348136,140.30982 101.74779,156.88053 Z"
         id="path6644"
         style="fill:#7c6f9f;fill-opacity:0.92271645;stroke-width:0.26458332" />
      <path
         style="fill:#7c6f9f;fill-opacity:0.92271645;stroke-width:0.26458332"
         id="path6646"
         d="M 102.09695,190.62673 73.046471,207.80221 43.646822,191.2315 43.297655,157.4853 72.348136,140.30982 101.74779,156.88053 Z"
         transform="matrix(0,0.19090916,-1,0,434.25139,116.61781)" />
      <path
         transform="matrix(0,0.19090916,-1,0,434.38471,184.11021)"
         d="M 102.09695,190.62673 73.046471,207.80221 43.646822,191.2315 43.297655,157.4853 72.348136,140.30982 101.74779,156.88053 Z"
         id="path6648"
         style="fill:#7c6f9f;fill-opacity:0.92271645;stroke-width:0.26458332" />
      <path
         transform="matrix(-0.19090916,0,0,-1,308.02013,405.72435)"
         d="M 102.09695,190.62673 73.046471,207.80221 43.646822,191.2315 43.297655,157.4853 72.348136,140.30982 101.74779,156.88053 Z"
         id="path6650"
         style="fill:#7c6f9f;fill-opacity:0.92271645;stroke-width:0.26458332" />
      <path
         style="fill:#7c6f9f;fill-opacity:0.92271645;stroke-width:0.26458332"
         id="path6652"
         d="M 102.09695,190.62673 73.046471,207.80221 43.646822,191.2315 43.297655,157.4853 72.348136,140.30982 101.74779,156.88053 Z"
         transform="matrix(-0.19090916,0,0,-1,240.52774,405.85766)" />
      <path
         transform="matrix(0,-0.19090916,1,0,86.406005,279.35977)"
         d="M 102.09695,190.62673 73.046471,207.80221 43.646822,191.2315 43.297655,157.4853 72.348136,140.30982 101.74779,156.88053 Z"
         id="path6654"
         style="fill:#7c6f9f;fill-opacity:0.92271645;stroke-width:0.26458332" />
    </g>
    <g
       transform="translate(4.6997389,-1.0443864)"
       id="g6963">
      <path
         transform="matrix(0.19090916,0,0,1,301.70498,-9.7467638)"
         d="M 102.09695,190.62673 73.046471,207.80221 43.646822,191.2315 43.297655,157.4853 72.348136,140.30982 101.74779,156.88053 Z"
         id="path6670"
         style="fill:#7c6f9f;fill-opacity:0.92271645;stroke-width:0.26458332" />
      <path
         style="fill:#7c6f9f;fill-opacity:0.92271645;stroke-width:0.26458332"
         id="path6672"
         d="M 102.09695,190.62673 73.046471,207.80221 43.646822,191.2315 43.297655,157.4853 72.348136,140.30982 101.74779,156.88053 Z"
         transform="matrix(0.19090916,0,0,1,369.19737,-9.8800784)" />
      <path
         transform="matrix(0,0.19090916,-1,0,523.31911,116.61781)"
         d="M 102.09695,190.62673 73.046471,207.80221 43.646822,191.2315 43.297655,157.4853 72.348136,140.30982 101.74779,156.88053 Z"
         id="path6674"
         style="fill:#7c6f9f;fill-opacity:0.92271645;stroke-width:0.26458332" />
      <path
         style="fill:#7c6f9f;fill-opacity:0.92271645;stroke-width:0.26458332"
         id="path6676"
         d="M 102.09695,190.62673 73.046471,207.80221 43.646822,191.2315 43.297655,157.4853 72.348136,140.30982 101.74779,156.88053 Z"
         transform="matrix(0,0.19090916,-1,0,523.45243,184.11021)" />
      <path
         style="fill:#7c6f9f;fill-opacity:0.92271645;stroke-width:0.26458332"
         id="path6678"
         d="M 102.09695,190.62673 73.046471,207.80221 43.646822,191.2315 43.297655,157.4853 72.348136,140.30982 101.74779,156.88053 Z"
         transform="matrix(-0.19090916,0,0,-1,397.08785,405.72435)" />
      <path
         transform="matrix(-0.19090916,0,0,-1,329.59546,405.85766)"
         d="M 102.09695,190.62673 73.046471,207.80221 43.646822,191.2315 43.297655,157.4853 72.348136,140.30982 101.74779,156.88053 Z"
         id="path6680"
         style="fill:#7c6f9f;fill-opacity:0.92271645;stroke-width:0.26458332" />
      <path
         style="fill:#7c6f9f;fill-opacity:0.92271645;stroke-width:0.26458332"
         id="path6682"
         d="M 102.09695,190.62673 73.046471,207.80221 43.646822,191.2315 43.297655,157.4853 72.348136,140.30982 101.74779,156.88053 Z"
         transform="matrix(0,-0.19090916,1,0,175.47371,279.35977)" />
    </g>
    <g
       transform="translate(5.2219321,-3.1806064)"
       id="g6783">
      <rect
         style="fill:#7c6f9f;fill-opacity:0.92271645;stroke-width:0.26458332"
         id="rect6713"
         width="14.583333"
         height="14.583333"
         x="189.58333"
         y="210.54167" />
      <rect
         y="175.12502"
         x="189.58333"
         height="14.583333"
         width="14.583333"
         id="rect6715"
         style="fill:#7c6f9f;fill-opacity:0.92271645;stroke-width:0.26458332" />
    </g>
  </g>
</svg>
